<?xml version="1.0" ?><svg id="Layer_1" style="enable-background:new 0 0 24 24;" version="1.1" viewBox="0 0 24 24" xml:space="preserve" xmlns="http://www.w3.org/2000/svg" xmlns:xlink="http://www.w3.org/1999/xlink"><style type="text/css">
	.st0{fill:#1E232D;}
</style><path class="st0" d="M24,3c0-1.7-1.3-3-3-3H3C1.3,0,0,1.3,0,3v18c0,1.7,1.3,3,3,3h18c1.7,0,3-1.3,3-3V3z M22,21c0,0.6-0.4,1-1,1H3  c-0.6,0-1-0.4-1-1V3c0-0.6,0.4-1,1-1h18c0.6,0,1,0.4,1,1V21z M14.5,5H6v14h2v-5h6.5C17,14,19,12,19,9.5S17,5,14.5,5z M14.5,12H8V7  h6.5C15.9,7,17,8.1,17,9.5S15.9,12,14.5,12z"/></svg>