<?xml version="1.0" ?><!DOCTYPE svg  PUBLIC '-//W3C//DTD SVG 1.1//EN'  'http://www.w3.org/Graphics/SVG/1.1/DTD/svg11.dtd'><svg enable-background="new 0 0 512 512" height="512px" id="Layer_1" version="1.1" viewBox="0 0 512 512" width="512px" xml:space="preserve" xmlns="http://www.w3.org/2000/svg" xmlns:xlink="http://www.w3.org/1999/xlink"><g><g><path d="M406.671,343.078H105.329c-13.788,0-25.005-9.746-25.005-21.725v-76.212c0-11.979,11.217-21.725,25.005-21.725h301.342    c13.788,0,25.005,9.746,25.005,21.725v76.212C431.676,333.333,420.459,343.078,406.671,343.078z M100.324,321.208    c0.352,0.604,2.129,1.87,5.005,1.87h301.342c2.876,0,4.653-1.265,5.005-1.87v-75.922c-0.352-0.604-2.128-1.87-5.005-1.87H105.329    c-2.877,0-4.653,1.266-5.005,1.87V321.208z"/></g><g><path d="M378.537,243.416H133.463c-5.522,0-10-4.477-10-10v-89.874c0-5.523,4.478-10,10-10h245.074c5.522,0,10,4.477,10,10v89.874    C388.537,238.939,384.06,243.416,378.537,243.416z M143.463,223.416h225.074v-69.874H143.463V223.416z"/></g><g><path d="M90.324,378.458c-5.522,0-10-4.477-10-10v-47.104c0-5.523,4.478-10,10-10s10,4.477,10,10v47.104    C100.324,373.98,95.847,378.458,90.324,378.458z"/></g><g><path d="M421.676,378.458c-5.522,0-10-4.477-10-10v-47.104c0-5.523,4.478-10,10-10s10,4.477,10,10v47.104    C431.676,373.98,427.198,378.458,421.676,378.458z"/></g><g><path d="M225.782,243.416H174.1c-5.522,0-10-4.477-10-10v-40.012c0-5.523,4.478-10,10-10h51.683c5.522,0,10,4.477,10,10v40.012    C235.782,238.939,231.305,243.416,225.782,243.416z M184.1,223.416h31.683v-20.012H184.1V223.416z"/></g><g><path d="M337.482,243.416h-51.682c-5.522,0-10-4.477-10-10v-40.012c0-5.523,4.478-10,10-10h51.682c5.522,0,10,4.477,10,10v40.012    C347.482,238.939,343.005,243.416,337.482,243.416z M295.801,223.416h31.682v-20.012h-31.682V223.416z"/></g></g></svg>