<?xml version="1.0" ?><svg data-name="Layer 1" id="Layer_1" viewBox="0 0 512 512" xmlns="http://www.w3.org/2000/svg"><path d="M482.67,469.2h-59.9V292.42h59.9a5.1,5.1,0,0,0,0-10.2h-65a5.1,5.1,0,0,0-5.1,5.1v48.59H362.5a5.2,5.2,0,0,0,.29-1.68V184h43.9a5.1,5.1,0,0,0,3.23-9.05l-69.36-56.7V49.37a5.1,5.1,0,0,0-5.1-5.1H283.85a5.1,5.1,0,0,0-5.1,5.1V67.68L237.26,33.75a5.12,5.12,0,0,0-6.46,0L58.14,174.91A5.1,5.1,0,0,0,61.37,184h43.89V303.49l-33.91-8.22A41.47,41.47,0,0,0,26.1,313.94,12.63,12.63,0,0,0,29.8,331L187.43,437.61a78.67,78.67,0,0,0,44,13.47c2.5,0,5-.12,7.51-.37L360.21,439h52.36V474.3a5.1,5.1,0,0,0,5.1,5.1h65a5.1,5.1,0,0,0,0-10.2ZM110.36,173.76H75.66L234,44.29l46.6,38.09A5.09,5.09,0,0,0,289,78.43v-24h41.41v66.15a5.09,5.09,0,0,0,1.87,3.95l60.17,49.19H357.69a5.1,5.1,0,0,0-5.1,5.1V327.68a122.76,122.76,0,0,0-69.71-26.56V224.51a48.46,48.46,0,0,0-48.42-48.41h-.87a48.46,48.46,0,0,0-48.41,48.41v76.42a39,39,0,0,0-30,14.66L115.46,306V178.86A5.1,5.1,0,0,0,110.36,173.76ZM272.68,300.93h-77.3V224.51a38.25,38.25,0,0,1,38.21-38.21h.87a38.26,38.26,0,0,1,38.22,38.21ZM359.73,428.8,238,440.56a68.53,68.53,0,0,1-44.82-11.4L35.52,322.59a2.45,2.45,0,0,1-.72-3.32A31.3,31.3,0,0,1,69,305.18l80.82,19.6a17.38,17.38,0,0,0,10.4,22.05L265.66,385.6a5.14,5.14,0,0,0,1.76.31,5.1,5.1,0,0,0,1.76-9.88L163.69,337.25a7.18,7.18,0,0,1-4-9.81,28.72,28.72,0,0,1,25.82-16.31h90.56a112.53,112.53,0,0,1,74.64,28.28l6.12,5.42a5.1,5.1,0,0,0,3.38,1.28h52.36v82.67Z"/></svg>